<?xml version="1.0" standalone="no"?>
<!DOCTYPE svg PUBLIC "-//W3C//DTD SVG 20010904//EN"
 "http://www.w3.org/TR/2001/REC-SVG-20010904/DTD/svg10.dtd">
<svg version="1.0" xmlns="http://www.w3.org/2000/svg"
 width="420.000000pt" height="420.000000pt" viewBox="0 0 420.000000 420.000000"
 preserveAspectRatio="xMidYMid meet">
<metadata>
Created by potrace 1.11, written by Peter Selinger 2001-2013
</metadata>
<g transform="translate(0.000000,420.000000) scale(0.100000,-0.100000)"
fill="#000000" stroke="none">
<path d="M1475 3335 c-99 -22 -315 -111 -331 -137 -3 -5 8 -3 24 6 85 44 266
59 393 32 37 -8 129 -35 206 -59 139 -45 214 -62 307 -71 l49 -4 -80 38 c-44
20 -113 60 -154 87 -100 68 -153 94 -224 109 -73 16 -112 16 -190 -1z"/>
<path d="M1870 3298 c3 -4 34 -28 70 -54 73 -53 191 -114 263 -135 84 -24 53
-32 -110 -26 -150 5 -166 7 -313 50 -147 42 -334 76 -347 63 -4 -3 4 -6 16 -6
41 0 125 -49 206 -121 44 -38 101 -81 128 -95 26 -13 47 -28 47 -32 0 -4 -44
-7 -98 -7 -102 -1 -121 -6 -402 -111 -66 -25 -89 -28 -190 -28 -98 0 -126 3
-192 26 -43 14 -78 25 -78 23 0 -10 172 -111 231 -136 86 -37 224 -72 349 -90
101 -15 94 -25 -19 -28 -86 -2 -250 -31 -326 -58 -38 -14 -140 -57 -225 -96
-153 -70 -156 -71 -260 -76 -119 -7 -104 -14 67 -31 180 -19 276 3 443 97 139
78 275 118 498 147 68 9 138 17 155 17 18 1 -11 5 -63 10 -188 16 -490 79
-490 101 0 4 18 8 39 8 59 0 178 25 252 53 173 65 343 92 531 85 l121 -5 -84
24 c-46 13 -120 41 -164 63 -80 39 -251 158 -241 167 2 3 47 -11 99 -30 109
-41 233 -67 321 -67 72 0 221 30 291 58 l50 20 -50 6 c-97 13 -178 37 -257 77
-44 22 -78 42 -77 44 2 1 29 -1 59 -6 30 -5 138 -11 240 -13 148 -3 201 -9
264 -26 92 -25 187 -66 249 -109 l44 -30 29 30 c31 33 213 154 220 147 2 -3
-5 -31 -16 -62 -11 -32 -27 -92 -35 -134 l-16 -76 108 -106 c59 -58 151 -162
203 -230 121 -157 195 -243 396 -457 169 -180 318 -357 329 -392 12 -40 -110
-217 -169 -245 -43 -20 -55 -20 -113 2 -48 18 -290 168 -437 269 -70 49 -82
54 -120 51 -142 -15 -335 36 -461 122 -60 41 -121 70 -148 70 -65 0 -255 -71
-370 -137 -113 -67 -224 -160 -451 -383 -128 -125 -265 -251 -306 -282 -75
-56 -202 -125 -295 -160 -38 -14 -42 -17 -17 -13 61 9 240 86 326 140 81 51
200 140 366 275 88 72 274 212 344 260 47 32 348 193 392 210 16 6 31 2 59
-17 54 -36 162 -88 225 -108 36 -11 106 -19 200 -22 l145 -6 200 -125 c230
-144 363 -212 413 -212 54 0 108 38 171 120 117 151 123 174 62 254 -21 28
-142 170 -270 316 -128 146 -285 334 -349 419 -200 263 -250 324 -316 386
l-64 60 9 60 c6 32 21 93 35 134 14 40 23 78 22 83 -4 12 -188 -80 -253 -127
l-50 -35 -35 39 c-110 124 -267 166 -525 141 -231 -22 -277 -23 -365 -7 -47 9
-94 19 -105 23 -11 4 -18 5 -15 2z"/>
<path d="M1205 3184 c-11 -3 -73 -24 -139 -46 -107 -36 -126 -40 -198 -36
l-81 3 59 -27 c95 -44 190 -55 310 -33 166 29 197 34 254 34 50 1 156 -17 205
-34 45 -16 -134 97 -185 116 -54 20 -184 34 -225 23z"/>
<path d="M1248 3020 c-21 -5 -93 -26 -160 -45 -138 -41 -237 -47 -320 -22 -27
8 -48 13 -48 11 0 -9 140 -73 201 -92 156 -48 273 -39 501 39 105 36 171 52
230 58 l83 7 -70 23 c-59 20 -95 24 -225 27 -85 2 -172 -1 -192 -6z"/>
<path d="M739 2740 c-31 -5 -92 -18 -135 -28 -147 -37 -219 -46 -345 -47 -123
0 -127 1 -190 33 l-64 34 60 -62 c80 -81 157 -119 258 -127 94 -7 166 6 321
58 151 51 243 69 359 69 l92 1 -85 33 c-95 37 -184 49 -271 36z"/>
<path d="M949 2630 c-114 -10 -216 -35 -359 -87 l-105 -38 -163 2 c-89 1 -173
-2 -185 -7 l-22 -9 22 0 c12 -1 72 -20 135 -43 113 -42 113 -42 258 -42 168
-1 178 2 395 101 155 72 257 102 349 104 l61 1 -45 8 c-81 14 -243 18 -341 10z"/>
</g>
</svg>
